<svg xmlns="http://www.w3.org/2000/svg" version="1.1" xmlns:xlink="http://www.w3.org/1999/xlink" xmlns:svgjs="http://svgjs.dev/svgjs" width="1500" height="658" viewBox="0 0 1500 658"><g transform="matrix(1,0,0,1,-1.8351063829786654,-1.7397719393940179)"><svg viewBox="0 0 376 165" data-background-color="#122023" preserveAspectRatio="xMidYMid meet" height="658" width="1500" xmlns="http://www.w3.org/2000/svg" xmlns:xlink="http://www.w3.org/1999/xlink"><g id="tight-bounds" transform="matrix(1,0,0,1,0.46023999999999887,0.4362650000000201)"><svg viewBox="0 0 375.07953 164.12739" height="164.12739" width="375.07953"><g><svg></svg></g><g><svg viewBox="0 0 375.07953 164.12739" height="164.12739" width="375.07953"><g transform="matrix(1,0,0,1,-10.22024,-46.117530000000016)"><path d="M10.22 201.082v-154.964h375.08v154.964h-103.738l0-5.209h98.529v-144.546h-364.662v144.546h98.529l0 5.209z" fill="#efefef" fill-rule="nonzero" stroke="none" stroke-width="1" stroke-linecap="butt" stroke-linejoin="miter" stroke-miterlimit="10" stroke-dasharray="" stroke-dashoffset="0" font-family="none" font-weight="none" font-size="none" text-anchor="none" style="mix-blend-mode: normal" data-fill-palette-color="tertiary"></path><g><path d="M134.081 203.514v0c-0.208 0-0.377-0.019-0.505-0.058-0.128-0.042-0.192-0.111-0.192-0.206v0c0-0.112 0.064-0.2 0.192-0.265 0.128-0.064 0.329-0.12 0.601-0.168v0c0.609-0.112 1.074-0.309 1.394-0.591 0.321-0.279 0.481-0.707 0.481-1.284v0-9.327c0-0.737-0.016-1.303-0.048-1.697-0.032-0.391-0.083-0.667-0.154-0.827-0.074-0.16-0.175-0.248-0.303-0.265v0c-0.224-0.048-0.46-0.077-0.706-0.086-0.25-0.006-0.583-0.01-1-0.01v0h-1.13c-0.385 0-0.764 0.075-1.14 0.226-0.378 0.154-0.655 0.391-0.831 0.712v0c-0.048 0.08-0.128 0.196-0.241 0.346-0.112 0.154-0.232 0.287-0.36 0.399-0.128 0.112-0.256 0.168-0.385 0.168v0c-0.064 0-0.107-0.032-0.13-0.096-0.026-0.064-0.038-0.136-0.038-0.216v0c0-0.16 0.04-0.321 0.12-0.481v0c0.224-0.465 0.389-0.878 0.495-1.241 0.103-0.359 0.186-0.787 0.25-1.283v0c0.032-0.272 0.093-0.433 0.183-0.481 0.087-0.048 0.162-0.072 0.226-0.072v0c0.064 0 0.165 0.096 0.303 0.288 0.135 0.192 0.234 0.353 0.298 0.481v0c0.096 0.16 0.317 0.28 0.663 0.361 0.343 0.08 0.683 0.12 1.02 0.12v0h8.461c0.561 0 1.018-0.032 1.37-0.096 0.353-0.064 0.657-0.152 0.914-0.265v0c0.192-0.096 0.349-0.2 0.471-0.312 0.119-0.112 0.274-0.168 0.466-0.169v0c0.048 0 0.088 0.059 0.121 0.178 0.032 0.122 0.048 0.247 0.048 0.375v0c0 0.08-0.011 0.192-0.034 0.337-0.026 0.144-0.046 0.256-0.062 0.336v0c-0.048 0.288-0.091 0.497-0.13 0.625-0.042 0.128-0.071 0.24-0.087 0.337-0.016 0.096-0.024 0.248-0.024 0.457v0 0.288c0 0.144-0.032 0.308-0.096 0.491-0.064 0.186-0.16 0.279-0.288 0.278v0c-0.112 0-0.2-0.088-0.265-0.264-0.064-0.176-0.128-0.417-0.192-0.721v0c-0.064-0.337-0.256-0.606-0.577-0.808-0.321-0.199-0.865-0.298-1.635-0.298v0h-2.428c-0.353 0-0.617 0.048-0.793 0.144-0.176 0.096-0.288 0.337-0.337 0.721-0.048 0.385-0.072 1.018-0.072 1.9v0 9.447c0 0.577 0.168 1.005 0.505 1.284 0.337 0.282 0.801 0.479 1.394 0.591v0c0.272 0.048 0.473 0.104 0.601 0.168 0.128 0.064 0.192 0.152 0.193 0.265v0c0 0.096-0.064 0.165-0.193 0.206-0.128 0.038-0.296 0.058-0.504 0.058v0c-0.433 0-0.788-0.011-1.068-0.034-0.282-0.026-0.551-0.046-0.807-0.062-0.256-0.016-0.569-0.024-0.938-0.024v0c-0.401 0-0.748 0.008-1.043 0.024-0.298 0.016-0.603 0.037-0.914 0.062-0.314 0.022-0.688 0.034-1.12 0.034zM150.163 203.754v0c-0.881 0-1.651-0.216-2.308-0.649-0.657-0.433-1.17-1.045-1.538-1.836-0.369-0.795-0.553-1.713-0.553-2.755v0c0-0.929 0.213-1.776 0.639-2.539 0.423-0.76 0.987-1.372 1.693-1.836 0.705-0.465 1.474-0.697 2.307-0.697v0c0.641 0 1.21 0.128 1.707 0.384 0.497 0.256 0.886 0.612 1.168 1.068 0.279 0.458 0.418 0.984 0.419 1.577v0c0 0.497-0.24 0.745-0.721 0.745v0h-5.073c-0.224 0-0.38 0.059-0.466 0.178-0.09 0.122-0.135 0.359-0.135 0.711v0c0 0.769 0.168 1.47 0.505 2.101 0.337 0.635 0.785 1.139 1.346 1.515 0.561 0.378 1.178 0.567 1.851 0.567v0c0.481 0 0.918-0.093 1.313-0.279 0.391-0.183 0.739-0.45 1.043-0.803v0c0.064-0.08 0.112-0.133 0.144-0.158 0.032-0.022 0.072-0.034 0.121-0.034v0c0.128 0 0.192 0.08 0.192 0.24v0c0 0.304-0.144 0.641-0.433 1.01v0c-0.24 0.304-0.529 0.569-0.865 0.793-0.337 0.224-0.705 0.397-1.106 0.52-0.401 0.119-0.817 0.178-1.25 0.177zM147.951 196.471v0h2.188c0.385 0 0.713-0.008 0.986-0.024 0.272-0.016 0.537-0.048 0.793-0.097v0c0.08-0.016 0.133-0.069 0.159-0.158 0.022-0.087 0.034-0.21 0.033-0.37v0c0-0.465-0.205-0.862-0.615-1.193-0.407-0.327-0.891-0.49-1.452-0.49v0c-0.369 0-0.737 0.109-1.106 0.327-0.369 0.215-0.673 0.482-0.913 0.803-0.24 0.321-0.361 0.641-0.361 0.961v0c0 0.16 0.096 0.24 0.288 0.241zM157.88 203.73v0c-0.497 0-0.962-0.075-1.395-0.226-0.433-0.154-0.801-0.367-1.106-0.639v0c-0.08-0.176-0.139-0.473-0.177-0.889-0.042-0.417-0.071-0.761-0.087-1.034v0c0-0.144 0.104-0.216 0.313-0.216v0c0.064 0 0.125 0.011 0.182 0.033 0.054 0.026 0.09 0.071 0.106 0.135v0c0.208 0.785 0.54 1.346 0.995 1.683 0.458 0.337 0.92 0.505 1.385 0.504v0c0.465 0 0.862-0.157 1.192-0.471 0.327-0.311 0.49-0.699 0.491-1.163v0c0-0.433-0.144-0.806-0.433-1.121-0.288-0.311-0.793-0.691-1.515-1.139v0c-0.545-0.337-0.986-0.657-1.322-0.961-0.337-0.304-0.58-0.617-0.73-0.938-0.154-0.321-0.231-0.681-0.231-1.082v0c0-0.513 0.12-0.978 0.36-1.394 0.24-0.417 0.601-0.75 1.082-1 0.481-0.247 1.082-0.37 1.803-0.37v0c0.481 0 0.881 0.048 1.202 0.144 0.321 0.096 0.561 0.2 0.721 0.313v0c0.128 0.176 0.237 0.452 0.327 0.826 0.087 0.378 0.13 0.736 0.13 1.073v0c0 0.112-0.08 0.168-0.241 0.168v0c-0.096 0-0.189-0.021-0.278-0.063-0.087-0.038-0.146-0.09-0.178-0.154v0c-0.208-0.529-0.468-0.934-0.779-1.216-0.314-0.279-0.704-0.418-1.168-0.418v0c-0.401 0-0.756 0.12-1.068 0.36-0.314 0.24-0.471 0.593-0.471 1.058v0c0 0.369 0.117 0.697 0.351 0.986 0.231 0.288 0.667 0.617 1.308 0.985v0c0.929 0.529 1.623 1.021 2.082 1.476 0.455 0.458 0.683 1.064 0.682 1.818v0c0 0.865-0.329 1.571-0.985 2.115-0.657 0.545-1.506 0.817-2.548 0.817zM166.726 203.73v0c-0.785 0-1.397-0.24-1.837-0.721-0.442-0.481-0.663-1.194-0.663-2.139v0-5.577c0-0.128-0.048-0.221-0.144-0.279-0.096-0.054-0.304-0.082-0.625-0.082v0h-0.145c-0.08 0-0.147-0.053-0.202-0.158-0.058-0.103-0.087-0.21-0.086-0.323v0c0-0.032 0.024-0.08 0.072-0.144 0.048-0.064 0.08-0.104 0.096-0.12v0c0.321-0.224 0.614-0.449 0.88-0.673 0.263-0.224 0.503-0.446 0.721-0.664 0.215-0.215 0.394-0.41 0.539-0.586v0c0.08-0.08 0.149-0.149 0.206-0.207 0.054-0.054 0.122-0.082 0.202-0.082v0c0.08 0 0.157 0.016 0.231 0.048 0.071 0.032 0.098 0.104 0.082 0.217v0l-0.12 1.082c-0.016 0.176 0.024 0.296 0.12 0.36 0.096 0.064 0.248 0.096 0.456 0.096v0h2.741c0.064 0 0.12 0.051 0.168 0.154 0.048 0.106 0.072 0.231 0.072 0.375v0c0 0.144-0.024 0.284-0.072 0.418-0.048 0.138-0.104 0.207-0.168 0.207v0h-2.38c-0.401 0-0.66 0.032-0.779 0.096-0.122 0.064-0.183 0.256-0.182 0.577v0 4.736c0 0.641 0.136 1.146 0.408 1.514 0.272 0.369 0.665 0.553 1.178 0.553v0c0.465 0 0.825-0.035 1.082-0.105 0.256-0.074 0.489-0.183 0.697-0.327v0c0.032-0.032 0.064-0.048 0.096-0.049v0c0.064 0 0.109 0.035 0.135 0.106 0.022 0.074 0.034 0.151 0.033 0.231v0c0 0.08-0.131 0.24-0.394 0.481-0.266 0.24-0.611 0.465-1.034 0.673-0.426 0.208-0.888 0.313-1.384 0.312zM176.077 210.245v0c-0.304 0-0.585-0.075-0.841-0.226-0.256-0.154-0.385-0.407-0.385-0.76v0c0-0.288 0.069-0.54 0.207-0.754 0.135-0.218 0.33-0.327 0.586-0.327v0c0.176 0 0.349 0.024 0.519 0.072 0.167 0.048 0.314 0.072 0.443 0.072v0c0.096 0 0.181-0.019 0.255-0.058 0.071-0.042 0.138-0.111 0.202-0.207v0c0.176-0.288 0.381-0.649 0.615-1.081 0.231-0.433 0.471-0.921 0.721-1.467 0.247-0.545 0.482-1.122 0.707-1.731v0c0.048-0.144 0.072-0.329 0.072-0.552v0c0-0.128-0.008-0.253-0.024-0.375-0.016-0.119-0.04-0.226-0.072-0.323v0l-2.789-7.043c-0.112-0.288-0.26-0.542-0.442-0.76-0.186-0.215-0.399-0.354-0.639-0.418v0c-0.128-0.048-0.252-0.104-0.371-0.168-0.122-0.064-0.183-0.152-0.182-0.265v0c0-0.096 0.061-0.157 0.182-0.182 0.119-0.022 0.218-0.034 0.298-0.034v0c0.321 0 0.558 0.008 0.712 0.024 0.151 0.016 0.295 0.035 0.433 0.058 0.135 0.026 0.338 0.038 0.61 0.038v0c0.288 0 0.505-0.013 0.649-0.038 0.144-0.022 0.296-0.042 0.457-0.058 0.16-0.016 0.401-0.024 0.721-0.024v0c0.096 0 0.2 0.019 0.313 0.058 0.112 0.042 0.168 0.111 0.168 0.207v0c0 0.112-0.083 0.22-0.25 0.322-0.17 0.106-0.319 0.175-0.447 0.206v0c-0.16 0.048-0.28 0.133-0.361 0.255-0.08 0.119-0.12 0.29-0.12 0.515v0c0 0.096 0.024 0.212 0.072 0.346 0.048 0.138 0.088 0.247 0.12 0.327v0l1.948 4.807c0.032 0.096 0.08 0.144 0.144 0.145v0c0.048 0 0.088-0.048 0.12-0.145v0l1.659-4.399c0.048-0.112 0.093-0.261 0.134-0.447 0.038-0.183 0.058-0.33 0.058-0.442v0c0-0.304-0.043-0.518-0.13-0.64-0.09-0.119-0.207-0.21-0.351-0.274v0c-0.128-0.064-0.276-0.149-0.442-0.254-0.17-0.103-0.255-0.21-0.255-0.322v0c0-0.096 0.061-0.165 0.183-0.207 0.119-0.038 0.218-0.058 0.298-0.058v0c0.224 0 0.454 0.019 0.687 0.058 0.231 0.042 0.571 0.063 1.02 0.062v0c0.304 0 0.526-0.013 0.663-0.038 0.135-0.022 0.25-0.042 0.346-0.058 0.096-0.016 0.232-0.024 0.409-0.024v0c0.08 0 0.181 0.011 0.303 0.034 0.119 0.026 0.178 0.087 0.178 0.182v0c0 0.112-0.059 0.2-0.178 0.265-0.122 0.064-0.247 0.12-0.375 0.168v0c-0.24 0.064-0.497 0.252-0.769 0.563-0.272 0.314-0.489 0.663-0.649 1.048v0l-3.27 7.788c-0.016 0.048-0.099 0.256-0.25 0.625-0.154 0.369-0.343 0.825-0.567 1.371-0.224 0.545-0.468 1.13-0.731 1.754-0.266 0.625-0.519 1.226-0.76 1.803v0c-0.144 0.321-0.353 0.566-0.625 0.736-0.272 0.167-0.585 0.25-0.937 0.25zM190.693 203.73v0c-0.897 0-1.707-0.208-2.428-0.625-0.721-0.417-1.293-0.989-1.717-1.716-0.426-0.731-0.639-1.561-0.639-2.49v0c0-0.673 0.133-1.33 0.399-1.972 0.263-0.641 0.635-1.226 1.115-1.754 0.481-0.529 1.042-0.95 1.683-1.265 0.641-0.311 1.33-0.466 2.067-0.466v0c0.929 0 1.768 0.224 2.515 0.673 0.744 0.449 1.337 1.037 1.779 1.764 0.439 0.731 0.659 1.529 0.658 2.395v0c0 0.929-0.204 1.811-0.61 2.644-0.41 0.833-1.016 1.51-1.818 2.029-0.801 0.522-1.803 0.784-3.004 0.783zM191.197 203.009v0c0.545 0 1.034-0.104 1.467-0.312 0.433-0.208 0.769-0.545 1.009-1.01v0c0.192-0.369 0.321-0.817 0.385-1.346 0.064-0.529 0.096-1.026 0.096-1.491v0c0-0.769-0.139-1.511-0.418-2.226-0.282-0.712-0.675-1.296-1.178-1.754-0.506-0.455-1.104-0.683-1.793-0.683v0c-0.433 0-0.821 0.067-1.164 0.202-0.346 0.138-0.663 0.391-0.952 0.76v0c-0.321 0.401-0.529 0.889-0.625 1.466-0.096 0.577-0.144 1.154-0.144 1.731v0c0 0.785 0.144 1.534 0.433 2.245 0.288 0.715 0.681 1.296 1.178 1.745 0.497 0.449 1.066 0.673 1.706 0.673zM205.765 203.851v0c-0.112 0-0.168-0.064-0.168-0.193v0c0-0.16 0.019-0.397 0.057-0.711 0.042-0.311 0.063-0.571 0.063-0.779v0c0-0.032 0-0.061 0-0.087 0-0.022 0-0.042 0-0.057v0c-0.625 0.609-1.253 1.045-1.885 1.307-0.635 0.266-1.329 0.399-2.082 0.399v0c-0.513 0-0.978-0.107-1.394-0.322-0.417-0.218-0.745-0.54-0.985-0.966-0.24-0.423-0.361-0.947-0.361-1.572v0-4.88c0-0.353-0.08-0.633-0.24-0.841-0.16-0.208-0.425-0.385-0.794-0.529v0c-0.08-0.032-0.152-0.072-0.216-0.121-0.064-0.048-0.096-0.136-0.096-0.264v0c0-0.144 0.037-0.24 0.11-0.288 0.071-0.048 0.154-0.08 0.25-0.097v0c0.545-0.032 0.965-0.077 1.26-0.134 0.298-0.054 0.671-0.138 1.12-0.25v0c0.048-0.016 0.085-0.024 0.111-0.024 0.022 0 0.05 0 0.082 0v0c0.176 0 0.256 0.112 0.24 0.336v0c-0.048 0.369-0.085 0.678-0.111 0.928-0.022 0.247-0.034 0.554-0.033 0.923v0 4.688c0 0.385 0.096 0.742 0.288 1.072 0.192 0.327 0.446 0.595 0.76 0.803 0.311 0.208 0.635 0.313 0.971 0.312v0c0.417 0 0.78-0.024 1.091-0.072 0.314-0.048 0.623-0.184 0.928-0.408v0c0.176-0.128 0.401-0.337 0.673-0.625 0.272-0.288 0.409-0.681 0.409-1.178v0-4.399c0-0.337-0.099-0.588-0.298-0.755-0.202-0.17-0.431-0.287-0.688-0.351-0.256-0.064-0.465-0.096-0.625-0.096v0c-0.144 0-0.264-0.029-0.36-0.087-0.096-0.054-0.144-0.162-0.144-0.322v0c0-0.144 0.051-0.24 0.153-0.288 0.106-0.048 0.223-0.072 0.351-0.073v0c0.497-0.016 0.91-0.037 1.241-0.062 0.327-0.022 0.622-0.063 0.884-0.12 0.266-0.054 0.543-0.122 0.832-0.202v0c0.032-0.016 0.072-0.029 0.12-0.039 0.048-0.006 0.088-0.01 0.121-0.009v0c0.208 0 0.313 0.088 0.312 0.264v0c0 0.016-0.005 0.043-0.014 0.082-0.006 0.042-0.018 0.087-0.034 0.134v0c-0.016 0.048-0.035 0.184-0.058 0.409-0.026 0.224-0.051 0.457-0.077 0.697-0.022 0.24-0.034 0.425-0.033 0.553v0 5.553c0 0.433 0.045 0.74 0.134 0.923 0.087 0.186 0.186 0.279 0.298 0.279v0c0.128 0 0.316-0.013 0.563-0.038 0.25-0.022 0.431-0.034 0.543-0.034v0c0.08 0 0.16 0.016 0.241 0.048 0.08 0.032 0.12 0.12 0.12 0.264v0c0 0.128-0.032 0.212-0.096 0.25-0.064 0.042-0.144 0.071-0.241 0.087v0c-0.625 0.08-1.162 0.2-1.61 0.361-0.449 0.16-0.849 0.313-1.202 0.456v0c-0.048 0.016-0.12 0.045-0.217 0.087-0.096 0.038-0.184 0.058-0.264 0.058zM210.813 203.466v0c-0.16 0-0.28-0.019-0.36-0.058-0.08-0.042-0.12-0.111-0.121-0.206v0c0-0.128 0.048-0.213 0.145-0.255 0.096-0.038 0.232-0.082 0.408-0.13v0c0.304-0.08 0.534-0.197 0.688-0.351 0.151-0.151 0.226-0.338 0.226-0.563v0-5.168c0-0.433-0.064-0.809-0.193-1.13-0.128-0.321-0.393-0.521-0.793-0.601v0c-0.064-0.016-0.12-0.056-0.168-0.12-0.048-0.064-0.072-0.128-0.072-0.192v0c0-0.16 0.072-0.256 0.216-0.289v0c0.417-0.128 0.853-0.317 1.308-0.567 0.458-0.247 0.816-0.45 1.072-0.611v0c0.096-0.064 0.171-0.109 0.226-0.134 0.058-0.022 0.103-0.034 0.135-0.034v0c0.08 0 0.12 0.056 0.12 0.168v0c0 0.048-0.005 0.168-0.015 0.361-0.006 0.192-0.013 0.417-0.019 0.673-0.01 0.256-0.022 0.513-0.038 0.769v0c0 0.032 0.016 0.048 0.048 0.048v0c0.256-0.321 0.54-0.601 0.851-0.841 0.314-0.24 0.635-0.433 0.961-0.577 0.33-0.144 0.647-0.216 0.952-0.216v0c0.337 0 0.614 0.072 0.832 0.216 0.215 0.144 0.322 0.329 0.322 0.553v0c0 0.16-0.043 0.337-0.13 0.529-0.09 0.192-0.207 0.361-0.351 0.505-0.144 0.144-0.296 0.216-0.457 0.216v0c-0.096 0-0.2-0.021-0.312-0.062-0.112-0.038-0.232-0.09-0.361-0.154v0c-0.128-0.048-0.256-0.096-0.384-0.145-0.128-0.048-0.256-0.072-0.385-0.072v0c-0.385 0-0.756 0.136-1.115 0.409-0.362 0.272-0.543 0.809-0.544 1.611v0 4.855c0 0.208 0.112 0.381 0.337 0.52 0.224 0.135 0.537 0.266 0.938 0.394v0c0.176 0.048 0.313 0.096 0.408 0.144 0.096 0.048 0.144 0.128 0.144 0.241v0c0 0.176-0.16 0.264-0.48 0.264v0c-0.481 0-0.846-0.019-1.097-0.058-0.247-0.042-0.579-0.063-0.995-0.062v0c-0.272 0-0.494 0.008-0.663 0.024-0.167 0.016-0.341 0.037-0.524 0.062-0.186 0.022-0.439 0.034-0.76 0.034zM225.934 203.73v0c-0.497 0-0.962-0.075-1.395-0.226-0.433-0.154-0.801-0.367-1.106-0.639v0c-0.08-0.176-0.141-0.473-0.182-0.889-0.038-0.417-0.066-0.761-0.082-1.034v0c0-0.144 0.104-0.216 0.313-0.216v0c0.064 0 0.123 0.011 0.177 0.033 0.058 0.026 0.095 0.071 0.111 0.135v0c0.208 0.785 0.54 1.346 0.995 1.683 0.458 0.337 0.92 0.505 1.385 0.504v0c0.465 0 0.861-0.157 1.187-0.471 0.33-0.311 0.495-0.699 0.496-1.163v0c0-0.433-0.144-0.806-0.433-1.121-0.288-0.311-0.793-0.691-1.515-1.139v0c-0.545-0.337-0.986-0.657-1.322-0.961-0.337-0.304-0.582-0.617-0.735-0.938-0.151-0.321-0.226-0.681-0.226-1.082v0c0-0.513 0.12-0.978 0.36-1.394 0.24-0.417 0.601-0.75 1.082-1 0.481-0.247 1.082-0.37 1.803-0.37v0c0.481 0 0.881 0.048 1.202 0.144 0.321 0.096 0.561 0.2 0.721 0.313v0c0.128 0.176 0.236 0.452 0.322 0.826 0.09 0.378 0.135 0.736 0.135 1.073v0c0 0.112-0.08 0.168-0.241 0.168v0c-0.096 0-0.189-0.021-0.278-0.063-0.087-0.038-0.146-0.09-0.178-0.154v0c-0.208-0.529-0.47-0.934-0.784-1.216-0.311-0.279-0.699-0.418-1.163-0.418v0c-0.401 0-0.758 0.12-1.073 0.36-0.311 0.24-0.466 0.593-0.466 1.058v0c0 0.369 0.115 0.697 0.346 0.986 0.234 0.288 0.671 0.617 1.313 0.985v0c0.929 0.529 1.622 1.021 2.077 1.476 0.458 0.458 0.688 1.064 0.687 1.818v0c0 0.865-0.329 1.571-0.985 2.115-0.657 0.545-1.506 0.817-2.548 0.817zM231.246 203.466v0c-0.369 0-0.553-0.088-0.553-0.264v0c0-0.128 0.059-0.213 0.178-0.255 0.122-0.038 0.247-0.082 0.375-0.13v0c0.24-0.08 0.473-0.184 0.697-0.313 0.224-0.128 0.337-0.353 0.337-0.673v0-12.043c0-0.561-0.08-0.97-0.241-1.226-0.16-0.256-0.441-0.433-0.841-0.529v0c-0.144-0.032-0.216-0.136-0.216-0.313v0c0-0.16 0.064-0.256 0.192-0.288v0c0.417-0.096 0.777-0.197 1.082-0.303 0.304-0.103 0.582-0.207 0.832-0.312 0.247-0.103 0.49-0.202 0.73-0.298v0c0.096-0.048 0.168-0.072 0.217-0.073v0c0.048 0 0.083 0.016 0.105 0.049 0.026 0.032 0.038 0.088 0.039 0.168v0c0 0.16-0.037 0.481-0.111 0.961-0.071 0.481-0.106 1.234-0.105 2.26v0 7.885c0 0.144 0.04 0.216 0.12 0.216v0c0.096 0 0.22-0.04 0.37-0.12 0.154-0.08 0.319-0.2 0.495-0.361v0c0.657-0.561 1.205-1.071 1.644-1.529 0.442-0.455 0.744-0.771 0.904-0.947v0c0.08-0.096 0.136-0.173 0.168-0.23 0.032-0.054 0.048-0.098 0.049-0.13v0c0-0.08-0.069-0.152-0.207-0.217-0.135-0.064-0.274-0.112-0.418-0.144v0c-0.192-0.048-0.288-0.128-0.289-0.24v0c0-0.08 0.048-0.149 0.144-0.207 0.096-0.054 0.224-0.082 0.385-0.082v0h1.178c0.256 0 0.524-0.024 0.803-0.072 0.282-0.048 0.546-0.096 0.793-0.144 0.25-0.048 0.447-0.072 0.591-0.072v0c0.224 0 0.337 0.08 0.337 0.24v0c0 0.096-0.056 0.179-0.168 0.25-0.112 0.074-0.256 0.135-0.433 0.183v0c-0.304 0.08-0.588 0.192-0.851 0.336-0.266 0.144-0.511 0.28-0.736 0.409v0c-0.096 0.064-0.317 0.237-0.663 0.519-0.343 0.279-0.736 0.603-1.178 0.972-0.439 0.369-0.851 0.721-1.236 1.057v0c-0.096 0.096-0.144 0.176-0.144 0.241v0c0 0.016 0.008 0.04 0.024 0.072 0.016 0.032 0.032 0.064 0.048 0.096v0c0.417 0.513 0.865 1.034 1.346 1.562 0.481 0.529 0.926 0.994 1.337 1.395 0.407 0.401 0.691 0.681 0.851 0.841v0c0.272 0.256 0.58 0.484 0.923 0.683 0.346 0.202 0.639 0.343 0.88 0.423v0c0.176 0.064 0.34 0.12 0.49 0.168 0.154 0.048 0.231 0.136 0.231 0.265v0c0 0.176-0.16 0.264-0.481 0.264v0c-0.625 0-1.327-0.011-2.105-0.034-0.776-0.026-1.572-0.038-2.39-0.038v0c-0.288 0-0.433-0.072-0.433-0.217v0c0-0.096 0.04-0.176 0.121-0.24 0.08-0.064 0.176-0.112 0.288-0.144v0c0.176-0.064 0.329-0.136 0.457-0.216 0.128-0.08 0.192-0.192 0.192-0.337v0c0-0.048-0.016-0.101-0.048-0.159-0.032-0.054-0.072-0.114-0.12-0.178v0l-2.909-3.293c-0.096-0.112-0.176-0.168-0.24-0.168v0c-0.08 0-0.12 0.056-0.12 0.168v0c-0.016 0.224-0.024 0.468-0.025 0.731 0 0.266 0 0.535 0 0.808v0c0 0.272 0 0.553 0 0.841 0 0.288 0.008 0.569 0.025 0.841v0c0 0.321 0.08 0.545 0.24 0.673 0.16 0.128 0.361 0.232 0.601 0.313v0c0.128 0.048 0.252 0.091 0.37 0.13 0.122 0.042 0.183 0.127 0.183 0.255v0c0 0.112-0.075 0.184-0.226 0.216-0.154 0.032-0.263 0.048-0.327 0.048v0c-0.304 0-0.529-0.011-0.673-0.034-0.144-0.026-0.277-0.046-0.399-0.062-0.119-0.016-0.322-0.024-0.611-0.024v0c-0.272 0-0.489 0.008-0.649 0.024-0.16 0.016-0.325 0.037-0.495 0.062-0.167 0.022-0.41 0.034-0.731 0.034zM242.568 203.466v0c-0.144 0-0.261-0.019-0.351-0.058-0.087-0.042-0.13-0.111-0.129-0.206v0c0-0.128 0.059-0.216 0.178-0.265 0.122-0.048 0.247-0.088 0.375-0.12v0c0.337-0.08 0.593-0.181 0.769-0.303 0.176-0.119 0.264-0.322 0.264-0.611v0-5.216c0-0.433-0.077-0.817-0.231-1.154-0.151-0.337-0.434-0.537-0.851-0.601v0c-0.08-0.016-0.141-0.048-0.182-0.096-0.038-0.048-0.058-0.12-0.058-0.216v0c0-0.176 0.072-0.272 0.216-0.289v0c0.641-0.144 1.17-0.341 1.587-0.591 0.417-0.247 0.729-0.45 0.938-0.611v0c0.144-0.112 0.256-0.168 0.336-0.168v0c0.096 0 0.144 0.04 0.144 0.12v0c0 0.128-0.021 0.38-0.062 0.755-0.038 0.378-0.074 0.795-0.106 1.25-0.032 0.458-0.048 0.872-0.048 1.24v0 5.577c0 0.272 0.091 0.473 0.274 0.601 0.186 0.128 0.439 0.232 0.76 0.313v0c0.128 0.032 0.252 0.072 0.37 0.12 0.122 0.048 0.183 0.136 0.183 0.265v0c0 0.176-0.16 0.264-0.481 0.264v0c-0.304 0-0.55-0.011-0.736-0.034-0.183-0.026-0.359-0.046-0.529-0.062-0.167-0.016-0.394-0.024-0.682-0.024v0c-0.272 0-0.497 0.008-0.674 0.024-0.176 0.016-0.353 0.037-0.528 0.062-0.176 0.022-0.425 0.034-0.746 0.034zM244.492 190.99v0c-0.337 0-0.622-0.117-0.856-0.351-0.231-0.231-0.346-0.514-0.346-0.851v0c0-0.353 0.115-0.646 0.346-0.88 0.234-0.231 0.519-0.346 0.856-0.346v0c0.353 0 0.644 0.115 0.875 0.346 0.234 0.234 0.351 0.527 0.351 0.88v0c0 0.337-0.117 0.62-0.351 0.851-0.231 0.234-0.522 0.351-0.875 0.351zM248.338 203.466v0c-0.08 0-0.181-0.011-0.303-0.034-0.119-0.026-0.178-0.087-0.178-0.182v0c0-0.128 0.059-0.221 0.178-0.279 0.122-0.054 0.247-0.106 0.375-0.154v0c0.24-0.08 0.473-0.173 0.697-0.279 0.224-0.103 0.337-0.314 0.337-0.635v0-12.115c0-0.465-0.085-0.854-0.255-1.168-0.167-0.311-0.45-0.506-0.851-0.587v0c-0.128-0.032-0.192-0.136-0.193-0.313v0c0-0.16 0.056-0.256 0.169-0.288v0c0.417-0.096 0.777-0.197 1.081-0.303 0.304-0.103 0.588-0.21 0.851-0.322 0.266-0.112 0.527-0.216 0.784-0.313v0c0.064-0.032 0.112-0.048 0.144-0.048v0c0.032 0 0.059 0.019 0.082 0.058 0.026 0.042 0.038 0.079 0.039 0.111v0c0 0.144-0.029 0.452-0.087 0.923-0.054 0.474-0.082 1.256-0.082 2.346v0 12.019c0 0.321 0.112 0.532 0.337 0.635 0.224 0.106 0.457 0.199 0.697 0.279v0c0.128 0.048 0.252 0.099 0.37 0.154 0.122 0.058 0.183 0.151 0.183 0.279v0c0 0.096-0.061 0.157-0.183 0.182-0.119 0.022-0.218 0.034-0.298 0.034v0c-0.304 0-0.55-0.011-0.736-0.034-0.183-0.026-0.359-0.046-0.528-0.062-0.167-0.016-0.394-0.024-0.683-0.024v0c-0.272 0-0.497 0.008-0.673 0.024-0.176 0.016-0.353 0.037-0.529 0.062-0.176 0.022-0.425 0.034-0.745 0.034zM254.107 203.466v0c-0.08 0-0.181-0.011-0.303-0.034-0.119-0.026-0.178-0.087-0.178-0.182v0c0-0.128 0.059-0.221 0.178-0.279 0.122-0.054 0.247-0.106 0.375-0.154v0c0.24-0.08 0.473-0.173 0.697-0.279 0.224-0.103 0.337-0.314 0.337-0.635v0-12.115c0-0.465-0.083-0.854-0.25-1.168-0.17-0.311-0.455-0.506-0.856-0.587v0c-0.128-0.032-0.192-0.136-0.192-0.313v0c0-0.16 0.056-0.256 0.168-0.288v0c0.417-0.096 0.777-0.197 1.082-0.303 0.304-0.103 0.588-0.21 0.851-0.322 0.266-0.112 0.527-0.216 0.783-0.313v0c0.064-0.032 0.112-0.048 0.145-0.048v0c0.032 0 0.059 0.019 0.081 0.058 0.026 0.042 0.038 0.079 0.039 0.111v0c0 0.144-0.029 0.452-0.087 0.923-0.054 0.474-0.082 1.256-0.081 2.346v0 12.019c0 0.321 0.112 0.532 0.336 0.635 0.224 0.106 0.457 0.199 0.697 0.279v0c0.128 0.048 0.252 0.099 0.37 0.154 0.122 0.058 0.183 0.151 0.183 0.279v0c0 0.096-0.061 0.157-0.183 0.182-0.119 0.022-0.218 0.034-0.298 0.034v0c-0.304 0-0.55-0.011-0.735-0.034-0.183-0.026-0.359-0.046-0.529-0.062-0.167-0.016-0.394-0.024-0.683-0.024v0c-0.272 0-0.497 0.008-0.673 0.024-0.176 0.016-0.353 0.037-0.529 0.062-0.176 0.022-0.425 0.034-0.745 0.034zM262.401 203.73v0c-0.497 0-0.962-0.075-1.395-0.226-0.433-0.154-0.801-0.367-1.106-0.639v0c-0.08-0.176-0.141-0.473-0.182-0.889-0.038-0.417-0.066-0.761-0.082-1.034v0c0-0.144 0.104-0.216 0.313-0.216v0c0.064 0 0.125 0.011 0.182 0.033 0.054 0.026 0.09 0.071 0.106 0.135v0c0.208 0.785 0.54 1.346 0.995 1.683 0.458 0.337 0.92 0.505 1.385 0.504v0c0.465 0 0.861-0.157 1.187-0.471 0.33-0.311 0.495-0.699 0.496-1.163v0c0-0.433-0.144-0.806-0.433-1.121-0.288-0.311-0.793-0.691-1.515-1.139v0c-0.545-0.337-0.986-0.657-1.322-0.961-0.337-0.304-0.582-0.617-0.735-0.938-0.151-0.321-0.226-0.681-0.226-1.082v0c0-0.513 0.12-0.978 0.36-1.394 0.24-0.417 0.601-0.75 1.082-1 0.481-0.247 1.082-0.37 1.803-0.37v0c0.481 0 0.881 0.048 1.202 0.144 0.321 0.096 0.561 0.2 0.721 0.313v0c0.128 0.176 0.236 0.452 0.322 0.826 0.09 0.378 0.135 0.736 0.135 1.073v0c0 0.112-0.08 0.168-0.241 0.168v0c-0.096 0-0.188-0.021-0.274-0.063-0.09-0.038-0.151-0.09-0.182-0.154v0c-0.208-0.529-0.468-0.934-0.779-1.216-0.314-0.279-0.704-0.418-1.168-0.418v0c-0.401 0-0.758 0.12-1.073 0.36-0.311 0.24-0.466 0.593-0.466 1.058v0c0 0.369 0.115 0.697 0.346 0.986 0.234 0.288 0.671 0.617 1.313 0.985v0c0.929 0.529 1.622 1.021 2.077 1.476 0.458 0.458 0.688 1.064 0.687 1.818v0c0 0.865-0.329 1.571-0.985 2.115-0.657 0.545-1.506 0.817-2.548 0.817z" fill="#efefef" fill-rule="nonzero" stroke="none" stroke-width="1" stroke-linecap="butt" stroke-linejoin="miter" stroke-miterlimit="10" stroke-dasharray="" stroke-dashoffset="0" font-family="none" font-weight="none" font-size="none" text-anchor="none" style="mix-blend-mode: normal" data-fill-palette-color="secondary" id="text-1"></path></g></g><g transform="matrix(1,0,0,1,29.33176499999999,53.182054482273486)"><svg viewBox="0 0 316.416 57.76328103545301" height="57.76328103545301" width="316.416"><g><svg viewBox="0 0 316.416 57.76328103545301" height="57.76328103545301" width="316.416"><g><svg viewBox="0 0 316.416 57.76328103545301" height="57.76328103545301" width="316.416"><g><svg viewBox="0 0 316.416 57.76328103545301" height="57.76328103545301" width="316.416"><g id="textblocktransform"><svg viewBox="0 0 316.416 57.76328103545301" height="57.76328103545301" width="316.416" id="textblock"><g><svg viewBox="0 0 316.416 57.76328103545301" height="57.76328103545301" width="316.416"><g transform="matrix(1,0,0,1,0,0)"><svg width="316.416" viewBox="0.34 -36.79 216.9 39.6" height="57.76328103545301" data-palette-color="#efefef"><path d="M0.34-0.24L0.34-4.44Q0.9-4.42 1.51-4.39L1.51-4.39Q2.03-4.37 2.61-4.36 3.2-4.35 3.74-4.35L3.74-4.35Q4.57-4.35 5.16-4.42 5.76-4.49 6.15-4.81 6.54-5.13 6.74-5.77 6.93-6.42 6.93-7.59L6.93-7.59 6.93-34.84 12.82-34.84 12.84-5.81Q12.84-3.96 12.41-2.72 11.99-1.49 11.15-0.74 10.3 0 9.06 0.31 7.81 0.61 6.18 0.61L6.18 0.61Q5 0.61 3.96 0.49 2.91 0.37 2.1 0.2L2.1 0.2Q1.15 0 0.34-0.24L0.34-0.24ZM20.33-7.3L20.33-7.3Q20.33-9.5 20.98-11.01 21.63-12.52 22.74-13.45 23.85-14.38 25.35-14.79 26.85-15.21 28.59-15.21L28.59-15.21Q30.34-15.21 31.77-15.01 33.2-14.82 34.25-14.58L34.25-14.58Q35.45-14.31 36.42-13.96L36.42-13.96 36.42-16.36Q36.42-17.26 36.36-17.88 36.3-18.51 36.15-18.97 36.01-19.43 35.75-19.75 35.5-20.07 35.13-20.36L35.13-20.36Q34.35-20.92 32.98-21.17 31.61-21.41 29.42-21.41L29.42-21.41Q28.02-21.41 26.72-21.33 25.41-21.24 24.39-21.12L24.39-21.12Q23.19-21 22.12-20.85L22.12-20.85 22.12-24.9Q23.09-25.29 24.53-25.61L24.53-25.61Q25.75-25.88 27.59-26.11 29.42-26.34 31.93-26.34L31.93-26.34Q33.62-26.34 34.92-26.21 36.23-26.07 37.23-25.76 38.23-25.44 39-24.93 39.77-24.41 40.38-23.66L40.38-23.66Q40.89-23.02 41.23-22.31 41.57-21.61 41.79-20.65 42.01-19.7 42.1-18.47 42.19-17.24 42.19-15.6L42.19-15.6 42.19 0 37.28 0 36.84-1.9Q35.76-1.15 34.47-0.56L34.47-0.56Q33.35-0.07 31.85 0.34 30.34 0.76 28.54 0.76L28.54 0.76Q26.34 0.76 24.78 0.32 23.22-0.12 22.23-1.07 21.24-2.03 20.79-3.56 20.33-5.1 20.33-7.3ZM26.27-7.3L26.27-7.3Q26.27-6.23 26.54-5.59 26.8-4.96 27.32-4.63 27.83-4.3 28.57-4.2 29.32-4.1 30.27-4.1L30.27-4.1Q31.52-4.1 32.63-4.33 33.74-4.57 34.59-4.83L34.59-4.83Q35.57-5.15 36.42-5.57L36.42-5.57 36.42-10.03Q35.64-10.18 34.74-10.3L34.74-10.3Q33.96-10.42 32.97-10.51 31.98-10.6 30.88-10.6L30.88-10.6Q29.66-10.6 28.79-10.49 27.93-10.38 27.37-10.02 26.8-9.67 26.54-9.02 26.27-8.37 26.27-7.3ZM55.41 0L46.5-25.76 52.8-25.76 59.15-5.4 59.25-5.4 65.6-25.76 71.89-25.76 63.01 0 55.41 0ZM75.14-7.3L75.14-7.3Q75.14-9.5 75.79-11.01 76.43-12.52 77.54-13.45 78.65-14.38 80.16-14.79 81.66-15.21 83.39-15.21L83.39-15.21Q85.15-15.21 86.58-15.01 88.01-14.82 89.06-14.58L89.06-14.58Q90.25-14.31 91.23-13.96L91.23-13.96 91.23-16.36Q91.23-17.26 91.17-17.88 91.11-18.51 90.96-18.97 90.81-19.43 90.56-19.75 90.3-20.07 89.93-20.36L89.93-20.36Q89.15-20.92 87.79-21.17 86.42-21.41 84.22-21.41L84.22-21.41Q82.83-21.41 81.52-21.33 80.22-21.24 79.19-21.12L79.19-21.12Q78-21 76.92-20.85L76.92-20.85 76.92-24.9Q77.9-25.29 79.34-25.61L79.34-25.61Q80.56-25.88 82.39-26.11 84.22-26.34 86.74-26.34L86.74-26.34Q88.42-26.34 89.73-26.21 91.03-26.07 92.03-25.76 93.03-25.44 93.8-24.93 94.57-24.41 95.18-23.66L95.18-23.66Q95.7-23.02 96.04-22.31 96.38-21.61 96.6-20.65 96.82-19.7 96.9-18.47 96.99-17.24 96.99-15.6L96.99-15.6 96.99 0 92.08 0 91.64-1.9Q90.57-1.15 89.27-0.56L89.27-0.56Q88.15-0.07 86.65 0.34 85.15 0.76 83.34 0.76L83.34 0.76Q81.14 0.76 79.58 0.32 78.02-0.12 77.03-1.07 76.04-2.03 75.59-3.56 75.14-5.1 75.14-7.3ZM81.07-7.3L81.07-7.3Q81.07-6.23 81.34-5.59 81.61-4.96 82.12-4.63 82.63-4.3 83.38-4.2 84.12-4.1 85.08-4.1L85.08-4.1Q86.32-4.1 87.43-4.33 88.54-4.57 89.4-4.83L89.4-4.83Q90.37-5.15 91.23-5.57L91.23-5.57 91.23-10.03Q90.45-10.18 89.54-10.3L89.54-10.3Q88.76-10.42 87.77-10.51 86.78-10.6 85.69-10.6L85.69-10.6Q84.47-10.6 83.6-10.49 82.73-10.38 82.17-10.02 81.61-9.67 81.34-9.02 81.07-8.37 81.07-7.3ZM130.8 0.76L130.8 0.76Q128.55 0.76 126.62 0.44 124.69 0.12 123.11-0.67 121.52-1.46 120.29-2.78 119.05-4.1 118.2-6.12 117.35-8.13 116.91-10.89 116.47-13.65 116.47-17.31L116.47-17.31Q116.47-22.8 117.44-26.34 118.42-29.88 120.28-31.92 122.13-33.96 124.79-34.75 127.45-35.55 130.8-35.55L130.8-35.55Q133.02-35.55 134.95-35.21 136.88-34.86 138.46-34.06 140.05-33.25 141.27-31.9 142.49-30.54 143.33-28.52 144.18-26.49 144.62-23.72 145.06-20.95 145.06-17.31L145.06-17.31Q145.06-14.36 144.76-11.99 144.47-9.62 143.92-7.76 143.37-5.91 142.54-4.54 141.71-3.17 140.66-2.2L140.66-2.2 144.23 2.81 138.9 2.81 136.88-0.05Q135.53 0.37 134.02 0.56 132.51 0.76 130.8 0.76ZM130.8-4.64L130.8-4.64Q131.53-4.64 132.19-4.69 132.85-4.74 133.41-4.83L133.41-4.83 129.46-10.5 134.7-10.5 137.12-6.98Q138.15-8.4 138.55-10.89 138.95-13.38 138.95-17.31L138.95-17.31Q138.95-21.12 138.57-23.58 138.2-26.05 137.27-27.5 136.34-28.96 134.77-29.53 133.19-30.1 130.8-30.1L130.8-30.1Q128.41-30.1 126.82-29.53 125.23-28.96 124.3-27.5 123.38-26.05 123-23.58 122.62-21.12 122.62-17.31L122.62-17.31Q122.62-13.53 123-11.07 123.38-8.62 124.3-7.19 125.23-5.76 126.82-5.2 128.41-4.64 130.8-4.64ZM151.96-7.54L151.96-25.76 157.75-25.76 157.75-8.2Q157.75-7.18 157.88-6.47 158.02-5.76 158.46-5.31 158.9-4.86 159.73-4.65 160.56-4.44 161.95-4.44L161.95-4.44Q163.41-4.44 164.61-4.6 165.81-4.76 166.66-4.96L166.66-4.96Q167.66-5.2 168.47-5.49L168.47-5.49 168.47-25.76 174.25-25.76 174.25 0 170 0 169.32-1.9Q167.95-1.15 166.37-0.56L166.37-0.56Q165-0.07 163.21 0.34 161.41 0.76 159.41 0.76L159.41 0.76Q155.62 0.76 153.79-1.26 151.96-3.27 151.96-7.54L151.96-7.54ZM185.7-30.13L185.7-30.13Q184.7-30.13 184.05-30.27 183.41-30.42 183-30.79 182.6-31.15 182.44-31.79 182.28-32.42 182.28-33.42L182.28-33.42Q182.28-34.42 182.44-35.07 182.6-35.72 183-36.11 183.41-36.5 184.05-36.65 184.7-36.79 185.7-36.79L185.7-36.79Q186.7-36.79 187.35-36.65 188-36.5 188.39-36.11 188.78-35.72 188.92-35.07 189.07-34.42 189.07-33.42L189.07-33.42Q189.07-32.42 188.92-31.79 188.78-31.15 188.39-30.79 188-30.42 187.35-30.27 186.7-30.13 185.7-30.13ZM182.8 0L182.8-25.76 188.61-25.76 188.61 0 182.8 0ZM195.9 0L195.9-3.86 208.94-20.75 208.94-20.8 196.39-20.8 196.39-25.76 216.95-25.76 216.95-22.09 203.84-5.15 203.84-5.1 217.24-5.1 217.24 0 195.9 0Z" opacity="1" transform="matrix(1,0,0,1,0,0)" fill="#efefef" class="wordmark-text-0" data-fill-palette-color="primary" id="text-0"></path></svg></g></svg></g></svg></g></svg></g><g></g></svg></g></svg></g></svg></g></svg></g><defs></defs></svg><rect width="375.07953" height="164.12739" fill="none" stroke="none" visibility="hidden"></rect></g></svg></g></svg>